<svg style="display: none;" id="icons" version="1.1" xmlns="http://www.w3.org/2000/svg">

<symbol id="icon-facebook" viewBox="0 0 558 558">
  <path d="M279 0C125.2 0 0 125.2 0 279c0 153.9 125.2 279 279 279 153.9 0 279-125.2 279-279S432.8 0 279 0zm69.4 288.8H303v161.8h-67.3V288.8h-32v-57.2h32v-37c0-26.5 12.6-67.9 67.9-67.9l49.8.2v55.5h-36.2c-5.9 0-14.3 3-14.3 15.6v33.6h51.3l-5.8 57.2z"/>
</symbol>

<symbol id="icon-instagram" viewBox="0 0 558 558">
  <path d="M223.1 279c.1-12.1 3.9-23.4 10.6-32.5 10.1-14.1 26.7-23.3 45.3-23.3 18.7 0 35.2 9.2 45.3 23.3 6.6 9.2 10.5 20.4 10.5 32.5 0 30.8-25.1 55.9-55.9 55.9-30.7-.1-55.8-25.1-55.8-55.9zM401 210.7v-53.8h-7l-46.8.2.2 53.8 53.6-.2zM558 279c0 153.9-125.2 279-279 279S0 432.8 0 279 125.2 0 279 0s279 125.2 279 279zm-120.3-97.3c0-33.9-27.5-61.3-61.3-61.3H181.6c-33.8 0-61.3 27.5-61.3 61.3v194.7c0 33.8 27.5 61.3 61.3 61.3h194.7c33.9 0 61.3-27.5 61.3-61.3V181.7zM365.8 279c0 47.8-38.9 86.8-86.8 86.8-47.8 0-86.7-39-86.7-86.8 0-11.5 2.3-22.5 6.4-32.5h-47.4v129.9c0 16.8 13.6 30.4 30.4 30.4h194.7c16.8 0 30.4-13.6 30.4-30.4v-130h-47.4c4 10.1 6.4 21.1 6.4 32.6z"/>
</symbol>

</svg>
