<svg xmlns="http://www.w3.org/2000/svg" width="210" height="42" viewBox="0 0 210 42" fill="#414141"><path d="M209.7 21.05c.1 0 .1 0 .2.1s.1.1.1.2 0 .2-.1.3c-.2.6-.4 1.1-.6 1.62-.2.5-.38.9-.58 1.3-.2.4-.5.8-.7 1.2l-.87 1.22s-.7.7-1.08 1c-.4.3-.8.5-1.28.7-.5.2-.9.3-1.5.3-.4 0-.8-.1-1.3-.2s-.9-.4-1.3-.7c-.4-.4-.7-.8-1-1.5-.3-.6-.4-1.5-.4-2.5 0-.4 0-.9.1-1.4.1-.5.2-.9.4-1.3s.3-.8.5-1.2c.2-.4.4-.7.6-1 .3-.5.7-.9 1.1-1.3.4-.4.8-.8 1.2-1.1.4-.3.8-.6 1.1-.7.3-.1.6-.3.9-.3.5 0 .9.2 1.3.6.4.4.6.9.6 1.6 0 .6-.2 1.3-.5 1.9-.3.6-.7 1.3-1.2 1.9l-1.5 1.8c-.5.5-1 1-1.5 1.3.2.6.5 1 .9 1.3.4.3.7.4 1 .4.5 0 1-.2 1.5-.6.5-.4.9-.9 1.3-1.4.4-.5.7-1.1 1-1.7.3-.6.5-1.1.7-1.6.1-.2.2-.3.2-.4 0-.1.2.1.4.1zm-7.57.9c0 .8.1 1.52.2 2.12.3-.3.5-.6.78-.9.3-.3.5-.7.7-1 .2-.4.4-.72.5-1.12.1-.4.2-.7.2-1.1 0-.5-.1-.9-.3-1.22-.2-.3-.4-.4-.7-.4-.1 0-.3.1-.4.2l-.4.7c-.2.3-.3.7-.4 1.22-.1.5-.1.9-.1 1.5zm-1.57-.9c.1 0 .1 0 .2.1s.1.1.1.2 0 .2-.1.3c-.3.9-.6 1.72-.8 2.42-.3.7-.48 1.3-.78 1.92-.4.8-.7 1.5-1.08 1.9-.3.4-.7.7-1.18.9-.1 0-.2.1-.4.1h-.4c-.28 0-.68-.1-1.07-.2-.4-.1-.7-.4-.98-.8-.3-.4-.6-.9-.8-1.6-.2-.8-.3-1.6-.3-2.7V23c-.38 1-.77 1.8-1.17 2.5-.4.73-.78 1.33-1.18 1.73.2.4.4.9.6 1.5l.3 1.82c.1.6.1 1.1.1 1.5v.8c0 1.3-.1 2.4-.2 3.33-.1.9-.3 1.7-.6 2.32-.3.6-.6 1.2-.9 1.6-.28.4-.67.8-1.17 1.1-.3.22-.6.42-.88.52-.3.1-.6.2-.9.2-.28 0-.58-.1-.97-.3-.3-.2-.7-.5-.9-.9-.28-.4-.48-.92-.67-1.52-.2-.6-.3-1.3-.3-2 0-.72 0-1.63.1-2.63s.1-2.13.2-3.34l.3-3.83c.1-1.3.2-2.72.38-4.03.1-1.3.3-2.6.4-3.9.1-1.3.3-2.5.4-3.63.1-1.1.2-2.1.4-2.9.2-.8.2-1.63.3-2.13.2-1.3.4-2.5.7-3.3.2-.9.4-1.6.7-2.1.2-.6.4-1 .7-1.3.2-.3.5-.5.7-.7.2-.2.5-.3.7-.4l.7-.3c.4-.2.7-.4 1-.5.3-.1.5-.2.8-.2.2 0 .3 0 .5.1s.3.2.5.4c.1.2.3.5.3.9.1.4.1.8.1 1.4 0 .8-.1 1.8-.2 3l-.6 3.4c-.3 1.2-.6 2.3-1.1 3.5-.4 1.2-.9 2.3-1.2 3.5-.5 1.1-.9 2.2-1.4 3.2-.5.9-.9 1.9-1.2 2.7-.1 1.5-.3 3.1-.4 4.8l-.3 5.4c0 .6-.1 1.1-.1 1.6v1.5c0 .8.1 1.4.2 1.9s.3.7.7.7c.4 0 .6-.2.9-.5.2-.4.4-.8.5-1.4l.3-2c.1-.7.1-1.5.1-2.2 0-.9 0-1.7-.1-2.5s-.2-1.6-.4-2.2c0-.1-.1-.37-.1-.47-.1-.1-.1-.2-.2-.3-.1-.1-.1-.2-.2-.3-.1-.1-.1-.2-.1-.3 0-.2.1-.4.2-.5.1-.2.3-.2.6-.2.2-.1.3-.1.5-.3.2-.1.4-.3.7-.5.3-.3.7-.9 1.1-1.62.4-.7.8-1.6 1.3-2.7.1-.2.2-.3.3-.4 0-.5.1-.9.1-1.4.1-.5.1-.9.2-1.4.2-.4.4-.8.7-1.1l.9-.9c.3-.2.6-.4.8-.6.2-.2.4-.2.5-.2.1 0 .1.1.1.2v.56c0 .3-.1.6-.1 1.1 0 .5-.1 1.1-.1 1.8s-.1 1.6-.1 2.67c0 .6 0 1.1.1 1.6s.2.9.3 1.3c.1.4.3.7.5.9.2.2.4.3.7.3.2 0 .4-.1.6-.3.2-.2.4-.5.6-.9.2-.4.4-.9.6-1.4.2-.54.4-1.14.7-1.75-.4-.5-.2-.6.1-.6zm-11.22-10.78c-.1.9-.3 2.12-.5 3.93-.18 1.7-.48 3.83-.68 6.35.5-1.3 1.1-2.72 1.58-4.33.5-1.62.98-3.33 1.28-5.04.3-1.5.5-2.72.6-3.73.08-1 .18-1.7.18-2.2v-.92c0-.2-.1-.4-.1-.5-.1-.1-.1-.2-.2-.2s-.1-.1-.2-.1-.28.1-.38.4c-.1.3-.3.6-.4.9-.1.3-.3.8-.4 1.3l-.28 1.52c-.1.5-.2 1-.3 1.4-.1.52-.2.92-.2 1.22zm9.35-.1c0 .1.1.2.1.3 0 .3-.2.5-.5.8-.3.2-.5.5-.7.72l-.6.6c-.2.2-.3.3-.5.4-.1.1-.3.2-.4.2h-.2c-.1 0-.1-.1-.2-.2-.2-.3-.3-.6-.5-.9-.2-.4-.3-.7-.4-1l-.3-.8c-.1-.2-.1-.4-.1-.4 0-.1.1-.3.2-.5.1-.1.2-.2.4-.5.2-.2.4-.5.6-.7.2-.2.4-.5.6-.7l.4-.4c.2-.2.3-.3.4-.3.1 0 .2.1.3.3 0 .1.1.3.3.6.1.3.3.6.4 1 .1.4.3.7.5 1 .1.1.2.3.2.4zM178.2 27.1c.3 0 .6-.1.8-.3.18-.2.38-.5.58-.8.2-.32.3-.72.4-1.22.1-.5.2-.9.2-1.4-.4-.32-.8-.62-1.1-1.02-.38-.4-.67-.9-.97-1.5-.2-.4-.3-.72-.4-1.12-.1-.4-.1-.7-.1-1.1 0-.4.1-.8.2-1.22.1-.4.3-.7.5-1 .2-.3.5-.5.9-.7.3-.2.7-.2 1.2-.2.6 0 1 .1 1.4.4.4.3.6.6.9 1 .2.4.4.9.4 1.4.1.5.1.92.1 1.42 0 .6 0 1.1-.1 1.7l-.3 1.83c.5 0 .9-.2 1.3-.4s.7-.6 1-1.22c.2-.3.3-.5.5-.5.1 0 .2 0 .2.1.1.1.1.1.1.3 0 .1 0 .2-.1.3-.3.8-.6 1.32-1.2 1.82-.6.4-1.3.7-1.9.7-.2.6-.5 1.3-.8 1.82-.3.6-.7 1.1-1 1.5-.4.4-.9.8-1.5 1-.5.2-1.1.4-1.7.4-.4 0-.7-.1-1.1-.2-.4-.1-.9-.3-1.3-.7-.4-.4-.7-.8-1-1.4-.3-.6-.4-1.5-.4-2.5 0-.8.2-1.7.5-2.6.3-.9.8-1.9 1.6-2.9.3-.3.5-.6.8-.7.2-.1.4-.2.6-.2.3 0 .4.2.4.5 0 .2-.1.4-.2.6-.1.2-.2.5-.3.9-.1.4-.2.8-.3 1.3-.1.5-.2 1.1-.2 1.8 0 1.3.2 2.3.6 3.1.2.5.7.8 1.3.8zm2.16-5.85c0-1.3-.1-2.3-.4-2.92-.3-.6-.5-.8-.8-.7-.1.1-.18.2-.18.4v.5c0 .3 0 .6.1.9l.3.92c.1.3.28.6.48.9.2.3.4.5.6.8v-.4c-.1-.1-.1-.2-.1-.4zm-6.8-17.72c.1.3.1.5.1.6 0 .1 0 .3-.1.3s-.1.2-.2.4c-.1.1-.1.2-.2.3-.1.1-.18.1-.28.2-.1.1-.2.1-.3.2-.1.1-.2.2-.2.3-.1.2-.2.4-.4.52-.18.1-.38.2-.58.2-.2 0-.4-.1-.6-.2-.18-.1-.38-.3-.68-.4-.2-.2-.5-.4-.78-.6-.3-.2-.7-.4-1.08-.62-.4-.2-1-.3-1.58-.4-.6-.1-1.28-.2-2.06-.2-1.18 0-2.27.2-3.15.5-.9.3-1.77.9-2.56 1.82-.5.6-.8 1.2-1.1 1.8-.2.6-.4 1.22-.4 1.72s.1.9.3 1.3c.2.4.5.82.9 1.12.4.3.9.6 1.4.9.5.3 1.1.5 1.7.8.6.3 1.3.5 1.9.8.7.3 1.3.5 2 .8 1 .4 1.9.9 2.6 1.4.8.5 1.4 1.1 2 1.7.6.6 1 1.3 1.2 2.1.2.8.4 1.5.4 2.4 0 1.1-.2 2.1-.6 3.1-.4 1-1 1.8-1.7 2.5-.8.7-1.7 1.3-2.9 1.7-1.2.4-2.5.6-4.1.6-1 0-2-.1-2.9-.4-.9-.3-1.6-.6-2.2-1-.6-.4-1-.8-1.3-1.1-.3-.5-.6-.8-.6-1-.1-.1-.1-.3-.1-.4v-.2c0-.1 0-.3.1-.3.1-.1.2-.2.3-.4.1-.1.1-.2.2-.2s.2-.1.3-.1c.1 0 .2-.1.3-.2.1-.1.2-.2.2-.3.2-.4.5-.7.9-.7.2 0 .4.1.7.2.28.1.48.3.68.6.3.2.6.5.9.7.3.3.7.5 1.18.7.5.2 1 .4 1.6.6.6.2 1.3.2 2.06.2 1 0 1.74-.1 2.43-.3.7-.2 1.2-.5 1.7-.8.4-.3.7-.8.9-1.2.2-.4.3-1 .3-1.5 0-.7-.1-1.3-.4-1.8-.3-.5-.6-.9-1.1-1.3-.5-.4-1-.7-1.6-1-.6-.3-1.3-.6-2.1-.9l-2.34-.9c-.9-.3-1.7-.7-2.6-1.1-.7-.3-1.3-.7-1.9-1.1-.6-.4-1.1-.8-1.47-1.3-.4-.6-.7-1.1-1-1.8-.15-.6-.25-1.3-.25-2.1 0-.9.1-2 .4-2.9.3-.9.66-1.8 1.15-2.6.5-.8 1.1-1.5 1.76-2.2.7-.7 1.42-1.3 2.3-1.8.9-.5 1.8-.9 2.8-1.1 1-.3 2-.4 3-.4 1.1 0 2.15.1 2.94.4.9.3 1.6.6 2.18 1 .6.4 1.1.8 1.4 1.1.5.5.7.8.8 1zm-26.94 17.52c.1 0 .1 0 .2.1s.1.1.1.2 0 .2-.1.3c-.4 1.2-.8 2.22-1.1 3.13-.28.9-.68 1.6-.97 2.2-.3.62-.7 1.02-1.1 1.32-.4.3-.78.5-1.18.5-.6 0-1-.1-1.28-.4-.3-.3-.6-.6-.8-1-.2-.4-.3-.9-.4-1.4-.1-.52-.1-1.02-.1-1.53v-3.62c0-.2 0-.4-.1-.5-.1-.1-.2-.2-.3-.2-.1 0-.2.1-.3.2-.1.1-.1.2-.2.4s-.2.4-.3.9c-.1.4-.3.9-.5 1.4-.2.52-.4 1.12-.5 1.63-.2.6-.4 1.1-.5 1.5-.2.6-.4 1.1-.6 1.42-.2.3-.4.6-.5.8-.2.2-.3.3-.5.4-.2.1-.3.1-.5.1-.1 0-.3 0-.4-.1-.1-.1-.3-.1-.4-.3-.1-.2-.2-.3-.3-.5-.1-.2-.1-.5-.1-.8v-6.45c0-.4 0-.7-.1-.8 0-.2-.1-.2-.2-.2s-.3.1-.4.4c-.1.3-.3.7-.5 1.3-.1.2-.2.3-.2.4 0 .1-.2.1-.3.1-.1 0-.1 0-.2-.1s-.1-.2-.1-.3c0-.1 0-.2.1-.4s.1-.4.2-.7c.1-.2.2-.5.3-.8.1-.3.2-.5.3-.7.1-.32.3-.62.4-.92.1-.3.3-.6.6-.9.2-.3.4-.5.7-.7.2-.2.5-.3.7-.3.4 0 .7.2 1 .6.3.4.5 1.1.5 1.9v5.04s.1-.1.2-.4c.1-.2.2-.6.4-.9.1-.4.3-.82.5-1.32l.6-1.5.6-1.52c.2-.5.4-.9.7-1.2.2-.4.5-.7.8-.92.3-.2.6-.3.8-.3.5 0 .8.3 1 .9.2.6.3 1.3.3 2.3V23c0 .5 0 1 .1 1.3 0 .3.1.6.2.8.1.2.2.3.3.4.1.1.2.1.3.1.3 0 .5-.1.7-.4.2-.2.4-.6.6-1 .2-.4.4-.9.6-1.4.2-.5.4-1.1.7-1.7 0 .2.1.1.4.1zm-13.68.6c-.4 1.2-.78 2.22-1.08 3.13-.3.9-.7 1.6-.98 2.2-.3.62-.7 1.12-1.08 1.42-.4.3-.8.5-1.28.5-.3 0-.6-.1-.8-.3-.2-.2-.38-.4-.48-.7-.1-.3-.3-.5-.3-.8 0-.3-.1-.4-.1-.5v-.1c0-.1 0-.1-.1-.1s0 0-.1.1c0 0 0 .1-.1.1 0 .1-.1.3-.3.5-.18.3-.38.5-.58.8-.3.3-.6.5-.88.7-.3.2-.7.3-1.08.3-.3 0-.6-.1-.9-.3-.28-.2-.48-.5-.68-.8-.2-.3-.4-.7-.5-1.2-.1-.5-.18-1.02-.18-1.52 0-1.1.2-2.22.5-3.22.38-1 .97-2.02 1.76-3.03.4-.5.78-.9 1.28-1.3.4-.4.88-.7 1.27-1 .4-.3.78-.52 1.18-.62.4-.1.68-.2.98-.2.2 0 .4 0 .6.1.2.1.3.2.5.4.1.2.3.4.3.6 0 .2.1.6.1.9 0 .4-.1.8-.2 1.3s-.3.9-.6 1.3-.4.7-.8 1c-.4.3-.8.4-1.2.4-.3 0-.4-.1-.4-.3 0-.1 0-.4.1-.7.1-.3.1-.6.1-1v-.4c0-.1 0-.3-.1-.5s-.1-.3-.2-.4c-.1-.1-.2-.2-.4-.2-.4 0-.7.2-.9.5-.3.3-.5.7-.7 1.2-.2.5-.3 1-.4 1.5-.1.5-.1 1-.1 1.3 0 .5 0 .9.1 1.3s.2.6.3.8c.1.2.3.3.5.4.2.1.3.1.5.1.4 0 .8-.1 1.2-.4.4-.3.6-.6.9-1 .2-.4.5-.7.6-1 .2-.3.3-.4.4-.4.1 0 .2.1.2.4.1.6.2 1.1.3 1.5.1.4.2.7.3.9.1.2.2.4.3.5.1.1.2.1.3.1.2 0 .4-.1.6-.3.2-.2.4-.5.6-.9.2-.4.4-.9.6-1.4.2-.5.4-1.1.7-1.7.1-.3.3-.5.5-.5s.3.1.3.4c-.2 0-.2.1-.2.2zm-10.23 0c-.3.8-.6 1.4-1.1 1.82-.5.4-1.1.6-1.7.6-.3 0-.7 0-1-.1-.3.7-.7 1.4-1.1 2.02-.4.6-.9 1.1-1.3 1.6-.5.4-.9.8-1.4 1-.5.2-.9.4-1.3.4-.2 0-.3 0-.5-.1-.1-.1-.3-.2-.4-.4-.2-.2-.4-.6-.6-1-.2-.4-.5-1-.7-1.7-.2-.7-.4-1.4-.6-2.3-.2-.9-.2-2-.2-3.2 0-.5 0-1 .1-1.4.1-.4.1-.7.2-.9l.3-.6.3-.3c.1-.1.2-.1.2-.2.1-.1.1-.1.2-.1s.2 0 .2.1c.1.1.1.1.2.1s.1 0 .2-.1.2-.1.3-.2c.1-.1.2-.2.3-.2.1-.1.2-.1.3-.1.1 0 .1 0 .2.1s.1.2.1.4v.5c0 .2-.1.3-.1.6 0 .2-.1.5-.1.8V20c0 1.5.2 2.93.5 4.14.3 1.3.7 2.32 1.3 3.13.1-.2.3-.4.4-.7.2-.3.3-.6.5-.93.2-.4.3-.8.5-1.3s.3-1 .4-1.7c-.2-.3-.5-.5-.7-.9-.2-.3-.4-.7-.6-1.1-.2-.4-.3-.7-.4-1.1-.1-.4-.1-.7-.1-1.1 0-.4.1-.8.2-1.2.1-.4.3-.7.5-1 .2-.3.4-.5.7-.6.3-.1.5-.2.9-.2.7 0 1.3.3 1.8 1s.7 1.6.7 2.7c0 .7-.1 1.3-.2 1.9-.1.64-.3 1.24-.5 1.84.2.1.5.1.7.1.5 0 .9-.1 1.3-.4.4-.3.7-.7.9-1.2.1-.3.3-.5.5-.5.1 0 .2 0 .2.1.1.1.1.1.1.2-.3.1-.3.2-.3.4zm-6.5-3.02c0 .4.1.9.2 1.4.2.52.4 1.02.7 1.42 0-.3 0-.5.1-.8v-.9c0-.7 0-1.22-.1-1.72-.1-.4-.2-.7-.4-.6-.1 0-.2 0-.3.1-.1.1-.1.2-.1.3 0 .1-.1.3-.1.4zm-12.1 2.42c.1 0 .1 0 .2.1s.1.1.1.3c0 .1 0 .1-.1.3-.3 1-.7 2.02-1 2.83-.3.8-.6 1.5-.9 2.1-.3.72-.7 1.22-1.1 1.72-.4.5-.9.6-1.6.6-.3 0-.6 0-.8-.1-.2-.1-.4-.3-.6-.5-.2-.3-.4-.6-.6-1.1-.2-.4-.3-1-.4-1.72-.2.4-.4.8-.7 1.3-.3.4-.5.82-.8 1.12-.3.3-.6.6-.9.8-.4.2-.8.3-1.3.3-.3 0-.6-.1-.9-.3-.3-.2-.6-.5-.8-.9-.2-.4-.4-.9-.5-1.4-.1-.5-.2-1.12-.2-1.82s.1-1.4.2-2.12c.1-.7.3-1.3.5-1.9.2-.62.5-1.22.8-1.72.3-.5.7-1 1.1-1.4.7-.72 1.3-1.12 1.9-1.53.6-.3 1.2-.5 1.6-.5h.4c.1-.6.1-1.3.2-2s.1-1.5.2-2.3c.1-1 .2-1.9.4-2.6.1-.7.2-1.3.3-1.8s.2-.9.3-1.3c.1-.4.2-.7.4-1 .1-.2.2-.4.3-.5.1-.1.2-.3.4-.4.1-.1.3-.2.4-.3.2-.1.3-.3.5-.5.3-.3.6-.6.8-.7.2-.1.4-.2.5-.2.1 0 .3 0 .4.1.1.1.1.2.1.4v.2c0 .1 0 .2-.1.3-.1.2-.1.5-.3 1-.1.5-.3 1.1-.4 1.8-.1.7-.3 1.5-.5 2.4-.2.9-.3 1.8-.4 2.8-.1 1.1-.3 2.2-.4 3.3l-.3 3.3c-.1 1-.1 2-.15 3 0 .9-.1 1.7-.1 2.4v1.3c0 .4.1.7.2 1 .1.3.2.5.3.7.1.2.28.2.48.2s.4-.1.6-.3c.2-.2.4-.5.6-.9.2-.4.4-.8.6-1.4l.8-1.9c.4-.3.6-.4.8-.4zm-7-3.12c0-.6-.2-.9-.7-.9-.4 0-.7.1-1.1.4-.3.3-.6.6-.8 1.1-.3.5-.5 1-.6 1.7-.1.72-.2 1.42-.2 2.23 0 .9.1 1.6.4 2.12.3.5.7.8 1.3.8.3 0 .6-.1.8-.3.2-.2.4-.4.5-.7l.3-.9c.1-.3.1-.72.1-1.02v-3.73c0-.3.1-.6.1-.8zm-5 3.12c.1 0 .1 0 .2.1s.1.1.1.2 0 .2-.1.3c-.3.8-.5 1.52-.8 2.12-.3.6-.5 1.2-.7 1.8-.2.52-.4 1.02-.6 1.32-.2.4-.4.7-.6.9-.2.3-.4.5-.6.6-.2.2-.4.3-.6.3-.2.1-.4.1-.7.1-.3 0-.6-.1-.9-.2-.2-.1-.6-.4-.9-.7-.3-.4-.5-.9-.7-1.5-.2-.7-.2-1.6-.2-2.6v-1.4c0-.7.1-1.5.1-2.5.1-.9.1-2 .2-3.2l.3-3.8c.1-.8.1-1.7.2-2.7l.3-2.8.3-2.5c.1-.8.2-1.4.3-1.9.1-.5.3-.8.5-1.1.3-.3.6-.5.9-.9l.4-.4.4-.5c.1-.1.3-.2.4-.3.1-.1.2-.1.4-.1s.3.1.3.3c0 .1 0 .4-.1.8s-.2 1-.3 1.8c-.1.8-.3 2-.3 3.4-.1 1.5-.3 3.3-.5 5.6 0 .4-.1 1-.1 1.6-.1.6-.1 1.3-.2 2s-.1 1.4-.1 2.1c0 .7-.1 1.4-.1 2 0 .6-.1 1.2-.1 1.8v1.3c0 .9.1 1.6.3 2.1.2.5.5.8 1 .8.3 0 .5-.1.7-.3.2-.2.4-.5.6-.9.2-.4.4-.8.6-1.4.2-.5.4-1.1.7-1.76.1-.2.1-.3.2-.4-.1-.1 0-.1.1-.1zm-6.8 0c.1 0 .1 0 .2.1s.1.1.1.2 0 .2-.1.3c-.2.6-.4 1.1-.6 1.62-.2.5-.4.9-.6 1.3-.2.4-.5.8-.7 1.2L82.8 27s-.7.7-1.08 1c-.4.3-.8.5-1.3.7-.5.2-.9.3-1.47.3-.4 0-.8-.1-1.3-.2s-.9-.4-1.3-.7c-.4-.4-.7-.8-1-1.5-.26-.6-.36-1.42-.36-2.43 0-.4 0-.9.1-1.4.1-.5.2-.9.4-1.32.2-.4.3-.8.4-1.2.2-.4.4-.7.6-1 .3-.52.7-.92 1.1-1.32s.8-.8 1.2-1.1c.4-.3.8-.6 1.1-.7.3-.12.7-.32 1-.32.5 0 .9.2 1.3.7.4.4.6.9.6 1.6 0 .6-.2 1.3-.5 1.9-.3.7-.7 1.3-1.2 1.9l-1.5 1.8c-.5.5-1 1-1.5 1.3.2.6.5 1 .9 1.3.4.3.7.4 1.1.4.5 0 1-.2 1.5-.6.5-.4.8-.9 1.2-1.4.4-.5.7-1.1.9-1.7.3-.6.5-1.1.8-1.6.1-.2.2-.3.2-.4.1.1.2.1.4.1zm-7.5.9c0 .8.1 1.52.2 2.12.3-.3.5-.6.8-.9.3-.3.5-.7.7-1 .2-.4.4-.72.5-1.12.1-.4.2-.7.2-1.1 0-.5-.1-.9-.3-1.22-.2-.3-.4-.4-.7-.4-.1 0-.3.1-.4.2-.1.1-.3.4-.4.7-.2.3-.3.7-.4 1.22-.1.4-.1.9-.1 1.5zm-1.3-.3c-.3 1-.6 2.02-.9 2.82-.2.9-.6 1.62-.9 2.32-.4.6-.7 1.1-1.2 1.5-.5.4-.9.5-1.5.5-.7 0-1.1-.3-1.5-1-.4-.7-.6-1.5-.6-2.7 0-.5 0-.9.1-1.3s.1-.8.2-1.2.1-.8.2-1.1c0-.4.1-.7.1-1.1 0-.4 0-.6-.1-.8-.1-.1-.2-.2-.4-.2h-.5c-.1 0-.3 0-.6.1-.1.3-.3.6-.4.8-.1.2-.2.4-.2.6 0 .2-.2.2-.3.3 0 .1-.1.2-.1.3-.1.3-.2.4-.3.5-.1.1-.1.1-.3.1-.1 0-.1 0-.2-.1v-.3c0-.1 0-.2.1-.3.1-.1.1-.3.1-.4.1-.2.1-.4.2-.7.1-.3.1-.6.2-1-.3-.1-.5-.4-.7-.8-.2-.4-.3-1-.3-1.6 0-.5.1-1 .2-1.5.2-.5.4-1 .6-1.4.2-.4.5-.8.8-1 .3-.3.5-.4.8-.4.3 0 .5.2.7.5.2.3.3.7.3 1.2 0 .2 0 .5-.1.7-.1.2-.1.5-.2.7-.1.2-.1.4-.2.6s-.1.3-.1.4c0 .1 0 .2.1.2s.2 0 .4-.1l1-.4c.4-.1.7-.2.9-.2.4 0 .7.1.7.4.1.3.2.7.2 1.2 0 .2 0 .6-.1 1.2s-.1 1.2-.2 1.9-.1 1.4-.2 2c0 .7-.1 1.2-.1 1.6 0 .5 0 .8.1 1 .1.2.3.3.6.3.2 0 .5-.1.7-.4.2-.3.5-.6.7-1 .2-.4.4-.9.6-1.4.2-.5.4-1 .5-1.4.1-.3.3-.5.5-.5s.3.1.3.4v.1c.4-.1.4-.1.4 0zm-8.9-.6c.1 0 .1 0 .2.1s.1.1.1.2 0 .2-.1.3c-.2.6-.4 1.1-.6 1.62-.2.5-.4.9-.6 1.3-.2.4-.5.8-.7 1.2l-1 1.23-1 1c-.4.3-.8.5-1.3.7-.5.2-.9.3-1.5.3-.4 0-.8-.1-1.3-.2s-.8-.4-1.2-.7c-.4-.4-.7-.8-1-1.5-.3-.6-.4-1.42-.4-2.43 0-.4 0-.9.1-1.4.1-.5.2-.9.4-1.32.2-.4.3-.8.4-1.2.2-.4.4-.7.6-1 .3-.52.7-.92 1.1-1.32.4-.4.8-.8 1.2-1.1.4-.3.8-.6 1.1-.7.3-.12.7-.32 1-.32.5 0 .9.2 1.3.7.4.4.6.9.6 1.6 0 .6-.2 1.3-.5 1.9-.3.7-.7 1.3-1.2 1.9l-1.5 1.8c-.5.5-1 1-1.5 1.3.2.6.5 1 .9 1.3.4.3.7.4 1.1.4.6 0 1.1-.2 1.6-.6.5-.4.9-.9 1.3-1.4.4-.5.7-1.1 1-1.7.3-.6.5-1.1.8-1.6.1-.2.2-.3.2-.4.2.1.3.1.4.1zm-7.6.9c0 .8.1 1.52.2 2.12.3-.3.5-.6.8-.9.3-.3.5-.7.7-1 .2-.4.4-.72.5-1.12.1-.4.2-.7.2-1.1 0-.5-.1-.9-.3-1.22-.2-.3-.3-.4-.6-.4-.1 0-.3.1-.4.2-.1.1-.3.4-.5.7-.2.3-.3.7-.4 1.22-.1.4-.1.9-.1 1.5zm-1.3-.3c-.3.8-.7 1.4-1.1 1.82-.5.4-1.1.6-1.7.6-.3 0-.7 0-1-.1-.24.7-.64 1.4-1.03 2.02-.4.6-.9 1.1-1.4 1.6-.5.4-.9.8-1.37 1-.5.2-.9.4-1.3.4-.2 0-.3 0-.5-.1s-.3-.2-.4-.4c-.1-.2-.3-.4-.5-.8-.2-.3-.4-.7-.5-1.2-.6.8-1.26 1.4-1.85 1.9-.7.5-1.26.7-1.75.7-.2 0-.3 0-.5-.1s-.3-.2-.4-.4c-.2-.2-.4-.6-.6-1-.2-.4-.5-1-.7-1.6-.2-.8-.4-1.5-.6-2.4-.2-.9-.2-1.9-.2-3.1 0-.5 0-1 .1-1.4.1-.4.1-.7.2-.9l.3-.6.3-.3c.1-.1.2-.1.2-.2.1-.1.1-.1.2-.1s.2 0 .2.1.1.1.2.1.1 0 .2-.1.2-.1.3-.2.2-.2.3-.2c.1-.1.2-.1.3-.1.1 0 .1 0 .2.1s.1.2.1.4v.5c0 .2-.1.3-.1.6s-.1.5-.1.8v1.2c0 1.5.2 2.9.46 4.1.3 1.3.7 2.3 1.3 3.1.2-.3.5-.7.7-1.2.2-.6.5-1.2.7-2l-.3-1.8c-.1-.6-.1-1.4-.1-2.1 0-.5 0-1 .1-1.4.1-.4.1-.7.2-.9l.3-.6.3-.3c.1-.1.2-.1.2-.2.1-.1.1-.1.2-.1s.2 0 .2.1.1.1.2.1.1 0 .2-.1.2-.1.3-.2c.1-.1.2-.2.3-.2.1-.1.2-.1.3-.1.1 0 .1 0 .2.1s.1.2.1.4v.5c0 .2-.1.3-.1.6 0 .2-.1.5-.1.8V20c0 1.5.2 2.9.5 4.13.27 1.3.67 2.3 1.26 3.12.1-.2.3-.4.4-.7.2-.3.3-.6.5-.94.2-.4.3-.8.5-1.3.1-.5.3-1 .4-1.7-.2-.3-.5-.5-.7-.9-.2-.3-.4-.7-.6-1.1-.2-.4-.3-.7-.3-1.1-.1-.4-.1-.7-.1-1.1 0-.4.1-.8.2-1.2.1-.4.3-.7.5-1 .13-.3.33-.5.62-.6.3-.2.5-.2.9-.2.7 0 1.28.3 1.77 1 .5.7.7 1.6.7 2.7 0 .7-.1 1.3-.2 1.9-.1.7-.3 1.3-.5 1.9-.1.2.1.2.4.2.5 0 .9-.1 1.3-.4.4-.3.7-.7.9-1.2.1-.3.3-.5.5-.5.1 0 .2 0 .2.1.1.1.1.1.1.2 0 0-.1.1-.1.3zM52 18.63c0 .4.1.9.2 1.4.2.52.4 1.02.7 1.42 0-.3 0-.5.1-.8.1-.3 0-.6 0-.9 0-.7 0-1.22-.1-1.72-.1-.4-.2-.7-.4-.6-.1 0-.2 0-.3.1-.1.1-.1.2-.1.3 0 .1-.1.3-.1.4zm-17.7 2.42c.1 0 .1 0 .2.1s.1.1.1.2 0 .2-.1.3c-.2.6-.4 1.1-.6 1.62-.2.5-.4.9-.57 1.3-.2.4-.5.8-.7 1.2L31.7 27s-.7.7-1.08 1c-.4.3-.8.5-1.3.7-.47.2-.86.3-1.45.3-.4 0-.8-.1-1.28-.2-.5-.1-.9-.4-1.3-.7-.4-.4-.7-.8-1-1.5-.3-.6-.4-1.42-.4-2.43 0-.4 0-.9.1-1.4.1-.5.2-.9.4-1.32.2-.4.3-.8.5-1.2.2-.4.4-.7.6-1 .3-.52.6-.92 1-1.32s.8-.8 1.2-1.1c.4-.3.8-.6 1.1-.7.3-.12.7-.32 1-.32.5 0 .9.2 1.3.7.4.4.6.9.6 1.6 0 .6-.2 1.3-.5 1.9-.3.7-.7 1.3-1.2 1.9l-1.5 1.8c-.5.5-1 1-1.5 1.3.2.6.5 1 .9 1.3.4.3.7.4 1.1.4.6 0 1-.2 1.5-.6.4-.4.8-.9 1.2-1.4.4-.5.7-1.1 1-1.7.3-.6.5-1.1.8-1.6.1-.2.2-.3.2-.4.2.1.3.1.4.1zm-7.56.9c0 .8.1 1.52.2 2.12.3-.3.47-.6.77-.9.3-.3.5-.7.7-1 .2-.4.4-.72.5-1.12.1-.4.2-.7.2-1.1 0-.5-.1-.9-.3-1.22-.2-.3-.4-.4-.7-.4-.1 0-.2.1-.3.2s-.3.4-.5.7c-.2.3-.3.7-.4 1.22v1.5zm-3.2-6.75c0 1.83-.2 3.54-.5 5.05-.3 1.52-.7 2.82-1.27 4.03-.5 1.2-1.18 2.22-1.87 3.02-.7.9-1.4 1.6-2.18 2.1-.8.5-1.6 1.02-2.3 1.22-.8.3-1.5.4-2.3.4-.5 0-1.07-.1-1.56-.3-.5-.2-.9-.5-1.28-.8-.4-.4-.7-.8-.9-1.32-.2-.5-.3-1.1-.3-1.7 0-.3 0-.4.1-.6.2-.1.3-.1.4-.1.1 0 .3.1.4.4.3.8.7 1.4 1.17 1.8.5.4 1.2.6 1.9.6 1 0 1.86-.3 2.65-1 .77-.7 1.46-1.6 2.05-2.92.6-1.3 1-2.82 1.3-4.73.3-1.92.5-4.03.5-6.35 0-1.5-.2-3.02-.5-4.33-.3-1.3-.9-2.42-1.58-3.43-.68-.9-1.57-1.7-2.65-2.2-1.1-.5-2.37-.82-3.84-.82-.9 0-1.88.1-2.77.4-1 .2-1.8.6-2.6 1.1-.7.52-1.4 1.12-1.8 1.93-.5.7-.8 1.6-.8 2.72 0 .6.1 1.1.2 1.7.2.5.3 1.02.6 1.52.2.4.4.8.6 1.1.2.3.4.5.4.7.1.2.2.3.2.5 0 .1 0 .2-.1.3-.1.1-.2.1-.5.1H4c-.3 0-.6-.2-1.08-.4-.5-.2-.88-.6-1.38-1-.5-.4-.9-1-1.2-1.7-.2-.9-.4-1.7-.4-2.6 0-.6.1-1.3.3-2 .2-.7.5-1.4 1-2.1.4-.7.97-1.4 1.56-2.2.6-.7 1.38-1.2 2.17-1.8.9-.4 1.9-.8 2.87-1.1 1.1-.2 2.2-.4 3.46-.4 1.78 0 3.36.3 4.73.8 1.28.5 2.36 1.2 3.35 2.1.88.9 1.67 1.8 2.16 2.9.5 1.1.98 2.2 1.28 3.3.3 1.1.5 2.2.6 3.2.1 1.1.1 2 .1 2.8zM8.84 6.57c.1-.3.3-.5.6-.7.2-.2.5-.3.8-.3.1 0 .2 0 .4.1s.2.2.2.3v.3c0 .1 0 .2-.1.3l-.6 3.42c-.2 1.2-.3 2.3-.5 3.4s-.2 2.2-.3 3.2c-.1 1-.2 2-.2 2.9 0 .9-.1 1.7-.1 2.3v7c-.1.3-.1.3-.2.4-.1.1-.1.1-.2.1-.2 0-.3 0-.5-.1-.17-.1-.27-.1-.37-.2-.1-.1-.3-.2-.4-.2-.1-.1-.2-.1-.4-.1-.08 0-.28 0-.38.1-.1.1-.2.1-.3.1-.2 0-.3 0-.4-.1-.1-.1-.2-.2-.2-.3 0-.1-.1-.2-.1-.4v-2.6c0-1 .1-2.1.1-3.5 0-.8.1-1.6.1-2.5.1-.9.1-1.8.2-2.6.1-.9.2-1.7.2-2.5.1-.8.2-1.6.2-2.3.1-.7.1-1.3.2-1.8s.1-.8.1-1c.3-.5.4-1 .5-1.4.1-.5.2-.8.3-.9.1-.2.2-.3.4-.4.1-.1.2-.2.4-.2.1-.1.3-.1.5-.1z"/></svg>